<svg width="124" height="124" viewBox="0 0 124 124" fill="none" xmlns="http://www.w3.org/2000/svg">
<g clip-path="url(#clip0_4_16)">
<rect width="124" height="124" fill="black"/>
<path d="M62.3249 67.0528L44.9078 97L27.5842 61.5173L22.7607 51.652C21.5361 49.1793 18.6765 47.0885 15.8168 46.3502C15.1123 46.1646 14.4078 46.0497 13.7299 46.0497H2.45455C-0.986631 46.0497 -5.41979 43.74 -7.39037 40.9241L-10.4332 36.5783C-12.4024 33.7651 -14 32.2351 -14 32.2351L22.861 32.3726C26.3088 32.3566 31.0321 33.7518 32.5441 36.8413L45.1457 63.1315L62.3382 28L79.5308 63.1315L92.1257 36.8413C93.6377 33.7531 98.0949 32.2204 101.536 32.2364L233 32.3739C233 32.3739 231.512 33.7665 229.543 36.5809L226.505 40.9268C224.528 43.7413 220.102 46.0524 216.662 46.0524H110.947C110.269 46.0524 109.564 46.1672 108.858 46.3528C105.992 47.0912 103.139 49.182 101.914 51.6547L97.0923 61.52L79.7634 96.9987L62.3249 67.0528Z" fill="white"/>
</g>
<defs>
<clipPath id="clip0_4_16">
<rect width="124" height="124" fill="white"/>
</clipPath>
</defs>
</svg>
