<svg width="390" height="54" viewBox="0 0 390 54" fill="none" xmlns="http://www.w3.org/2000/svg">
<path d="M268.107 19.014H279.615L282.189 33.232C282.459 34.948 282.684 36.649 282.864 38.339C283.045 40.034 283.271 41.762 283.541 43.523H283.812C284.084 41.762 284.366 40.012 284.66 38.274C284.953 36.538 285.302 34.856 285.71 33.232L288.823 19.014H298.706L301.956 33.232C302.361 34.948 302.71 36.649 303.004 38.339C303.298 40.034 303.624 41.762 303.986 43.523H304.256C304.528 41.762 304.755 40.035 304.934 38.339C305.113 36.649 305.341 34.947 305.612 33.232L308.184 19.014H318.881L311.162 52.863H297.622L295.185 41.084C294.914 39.504 294.645 37.924 294.373 36.344C294.103 34.767 293.832 33.028 293.561 31.134H293.291C293.02 33.028 292.773 34.767 292.547 36.344C292.321 37.924 292.073 39.504 291.8 41.084L289.499 52.863H276.232L268.107 19.014Z" fill="currentColor"/>
<path d="M91.034 35.908C91.034 33.109 91.497 30.603 92.423 28.392C93.348 26.182 94.59 24.322 96.147 22.808C97.703 21.296 99.497 20.145 101.529 19.356C103.559 18.567 105.658 18.169 107.823 18.169C109.99 18.169 112.075 18.566 114.087 19.356C116.091 20.145 117.877 21.296 119.433 22.808C120.989 24.322 122.242 26.182 123.189 28.392C124.137 30.603 124.611 33.109 124.611 35.908C124.611 38.705 124.137 41.209 123.189 43.42C122.242 45.633 120.989 47.494 119.433 49.004C117.876 50.52 116.091 51.668 114.087 52.458C112.076 53.246 109.991 53.643 107.823 53.643C105.657 53.643 103.559 53.247 101.529 52.458C99.496 51.668 97.703 50.52 96.147 49.004C94.59 47.494 93.348 45.633 92.423 43.42C91.497 41.209 91.034 38.705 91.034 35.908ZM102.949 35.908C102.949 38.479 103.322 40.52 104.065 42.034C104.812 43.545 106.062 44.301 107.823 44.301C109.583 44.301 110.836 43.545 111.579 42.034C112.326 40.52 112.698 38.479 112.698 35.908C112.698 33.336 112.326 31.292 111.579 29.781C110.836 28.269 109.582 27.513 107.823 27.513C106.062 27.513 104.812 28.269 104.065 29.781C103.322 31.292 102.949 33.336 102.949 35.908Z" fill="currentColor"/>
<path d="M130.701 18.982H140.18L140.992 23.045H141.261C142.616 21.737 144.161 20.598 145.9 19.624C147.635 18.655 149.658 18.169 151.956 18.169C155.66 18.169 158.341 19.424 160.013 21.928C161.683 24.431 162.518 27.782 162.518 31.98V52.831H150.874V33.469C150.874 31.305 150.603 29.862 150.062 29.136C149.522 28.417 148.662 28.055 147.489 28.055C146.406 28.055 145.502 28.281 144.781 28.732C144.06 29.183 143.246 29.815 142.343 30.628V52.832H130.7V18.982H130.701Z" fill="currentColor"/>
<path d="M205.6 35.908C205.6 33.156 206.062 30.683 206.988 28.494C207.914 26.305 209.132 24.446 210.643 22.909C212.155 21.377 213.881 20.201 215.821 19.388C217.762 18.578 219.772 18.169 221.848 18.169C224.33 18.169 226.494 18.599 228.346 19.456C230.196 20.312 231.731 21.486 232.949 22.976C234.169 24.466 235.081 26.205 235.689 28.19C236.301 30.173 236.603 32.295 236.603 34.55C236.603 35.592 236.548 36.513 236.435 37.327C236.323 38.14 236.221 38.747 236.131 39.157H216.836C217.38 41.32 218.35 42.811 219.749 43.623C221.145 44.437 222.796 44.841 224.689 44.841C225.865 44.841 227.001 44.673 228.109 44.335C229.213 43.996 230.375 43.49 231.595 42.812L235.384 49.717C233.534 51.026 231.493 52.005 229.259 52.662C227.025 53.313 224.96 53.641 223.064 53.641C220.584 53.641 218.281 53.245 216.16 52.456C214.039 51.666 212.202 50.518 210.642 49.002C209.085 47.492 207.857 45.631 206.954 43.418C206.051 41.209 205.6 38.705 205.6 35.908ZM226.721 32.116C226.721 30.675 226.393 29.453 225.74 28.461C225.085 27.467 223.878 26.972 222.118 26.972C220.809 26.972 219.669 27.355 218.7 28.123C217.727 28.891 217.064 30.222 216.703 32.116H226.721Z" fill="currentColor"/>
<path d="M240.966 18.982H250.445L251.257 24.806H251.527C252.792 22.502 254.293 20.823 256.031 19.762C257.766 18.702 259.47 18.169 261.14 18.169C262.178 18.169 263.012 18.228 263.644 18.34C264.277 18.455 264.839 18.622 265.338 18.848L263.442 28.867C262.809 28.731 262.212 28.608 261.646 28.494C261.081 28.382 260.417 28.324 259.649 28.324C258.431 28.324 257.156 28.744 255.825 29.576C254.494 30.416 253.422 31.889 252.609 34.013V52.831H240.965V18.982H240.966Z" fill="currentColor"/>
<path d="M320.843 35.908C320.843 33.156 321.306 30.683 322.233 28.494C323.157 26.305 324.376 24.446 325.886 22.909C327.398 21.377 329.126 20.201 331.067 19.388C333.005 18.578 335.017 18.169 337.091 18.169C339.572 18.169 341.739 18.599 343.591 19.456C345.44 20.312 346.976 21.486 348.192 22.976C349.414 24.466 350.327 26.205 350.932 28.19C351.545 30.173 351.847 32.295 351.847 34.55C351.847 35.592 351.791 36.513 351.68 37.327C351.568 38.14 351.464 38.747 351.373 39.157H332.082C332.623 41.32 333.594 42.811 334.992 43.623C336.39 44.437 338.039 44.841 339.934 44.841C341.106 44.841 342.245 44.673 343.352 44.335C344.456 43.996 345.619 43.49 346.839 42.812L350.627 49.717C348.779 51.026 346.737 52.005 344.503 52.662C342.269 53.313 340.205 53.641 338.309 53.641C335.828 53.641 333.523 53.245 331.404 52.456C329.281 51.666 327.445 50.518 325.885 49.002C324.33 47.492 323.1 45.631 322.199 43.418C321.296 41.209 320.843 38.705 320.843 35.908ZM341.963 32.116C341.963 30.675 341.637 29.453 340.983 28.461C340.33 27.467 339.124 26.972 337.363 26.972C336.053 26.972 334.914 27.355 333.945 28.123C332.971 28.891 332.309 30.222 331.947 32.116H341.963Z" fill="currentColor"/>
<path d="M57.457 30.188L44.429 52.618L31.471 26.042L27.863 18.653C26.947 16.801 24.808 15.235 22.669 14.682C22.142 14.543 21.615 14.457 21.108 14.457H12.674C10.1 14.457 6.784 12.727 5.31 10.618L3.034 7.363C1.561 5.256 0.365997 4.11 0.365997 4.11L27.938 4.213C30.517 4.201 34.05 5.246 35.181 7.56L44.607 27.251L57.467 0.938004L70.327 27.251L79.748 7.56C80.879 5.247 84.213 4.099 86.787 4.111L185.122 4.214C185.122 4.214 184.009 5.257 182.536 7.365L180.264 10.62C178.785 12.728 175.474 14.459 172.901 14.459H93.826C93.319 14.459 92.792 14.545 92.264 14.684C90.12 15.237 87.986 16.803 87.07 18.655L83.463 26.044L70.501 52.617L57.457 30.188Z" fill="currentColor"/>
<path d="M201.66 0.959C201.192 1.396 199.876 2.678 198.122 3.859L194.42 6.352C192.139 7.899 190.267 11.256 190.089 14.011C190.089 14.011 189.972 15.656 189.991 16.277C190.005 16.666 190.271 21.555 190.271 21.555C189.234 20.517 188.128 19.694 186.956 19.084C185.781 18.475 184.27 18.169 182.419 18.169C180.702 18.169 179.011 18.578 177.342 19.388C175.673 20.2 174.194 21.364 172.907 22.874C171.621 24.386 170.581 26.25 169.794 28.46C169.003 30.674 168.609 33.155 168.609 35.907C168.609 38.659 168.935 41.131 169.591 43.318C170.243 45.508 171.169 47.368 172.366 48.904C173.562 50.439 175.005 51.61 176.699 52.424C178.39 53.235 180.296 53.642 182.417 53.642C183.907 53.642 185.405 53.28 186.92 52.559C188.43 51.837 189.774 50.89 190.947 49.717H191.218L192.03 52.83H201.509L201.495 13.49L201.66 0.959ZM189.866 41.73C189.234 42.677 188.581 43.319 187.903 43.659C187.225 43.997 186.434 44.165 185.534 44.165C183.953 44.165 182.724 43.534 181.843 42.269C180.964 41.008 180.525 38.838 180.525 35.772C180.525 32.793 181.009 30.695 181.978 29.476C182.952 28.257 184.044 27.647 185.262 27.647C186.031 27.647 186.822 27.761 187.634 27.987C188.446 28.214 189.191 28.64 189.866 29.273V41.73Z" fill="currentColor"/>
<path d="M388.263 28.392C387.629 26.271 386.738 24.466 385.59 22.975C384.439 21.486 383.05 20.335 381.425 19.523C379.8 18.713 377.995 18.304 376.009 18.304C374.52 18.304 373.053 18.598 371.612 19.187C370.163 19.774 368.856 20.608 367.681 21.69L367.952 16.815L367.942 0.991997V0.977997C367.415 1.47 366.014 2.773 364.335 3.905L360.633 6.398C358.449 7.878 356.611 11.086 356.3 13.775V14.082L356.31 52.966H365.382L366.329 49.31H366.6C367.907 50.799 369.284 51.914 370.727 52.661C372.171 53.408 373.638 53.778 375.13 53.778C376.935 53.778 378.684 53.371 380.373 52.56C382.067 51.747 383.566 50.564 384.874 49.003C386.184 47.448 387.231 45.53 388.022 43.25C388.811 40.974 389.209 38.365 389.209 35.434C389.21 32.86 388.893 30.513 388.263 28.392ZM375.805 42.403C374.814 43.668 373.639 44.299 372.285 44.299C371.518 44.299 370.771 44.189 370.051 43.96C369.329 43.736 368.629 43.306 367.952 42.674V30.216C368.72 29.317 369.452 28.686 370.154 28.324C370.85 27.962 371.654 27.781 372.558 27.781C374.136 27.781 375.319 28.391 376.11 29.61C376.897 30.829 377.294 32.837 377.294 35.635C377.294 38.882 376.797 41.143 375.805 42.403Z" fill="currentColor"/>
</svg>
